<?xml version="1.0" standalone="yes"?>
<svg xmlns="http://www.w3.org/2000/svg" version="1.1" width="600" height="600">
  <rect x="0" y="0" width="600" height="600" style="fill:#57ffbf;shape-rendering:crispEdges;"/>
  <rect x="72.72727272727273" y="72.72727272727273" width="18.181818181818183" height="18.181818181818183" style="fill:#ffffff;shape-rendering:crispEdges;"/>
  <rect x="90.90909090909092" y="72.72727272727273" width="18.181818181818183" height="18.181818181818183" style="fill:#ffffff;shape-rendering:crispEdges;"/>
  <rect x="109.0909090909091" y="72.72727272727273" width="18.181818181818183" height="18.181818181818183" style="fill:#ffffff;shape-rendering:crispEdges;"/>
  <rect x="127.27272727272728" y="72.72727272727273" width="18.181818181818183" height="18.181818181818183" style="fill:#ffffff;shape-rendering:crispEdges;"/>
  <rect x="145.45454545454547" y="72.72727272727273" width="18.181818181818183" height="18.181818181818183" style="fill:#ffffff;shape-rendering:crispEdges;"/>
  <rect x="163.63636363636365" y="72.72727272727273" width="18.181818181818183" height="18.181818181818183" style="fill:#ffffff;shape-rendering:crispEdges;"/>
  <rect x="181.8181818181818" y="72.72727272727273" width="18.181818181818183" height="18.181818181818183" style="fill:#ffffff;shape-rendering:crispEdges;"/>
  <rect x="218.1818181818182" y="72.72727272727273" width="18.181818181818183" height="18.181818181818183" style="fill:#ffffff;shape-rendering:crispEdges;"/>
  <rect x="254.54545454545456" y="72.72727272727273" width="18.181818181818183" height="18.181818181818183" style="fill:#ffffff;shape-rendering:crispEdges;"/>
  <rect x="309.0909090909091" y="72.72727272727273" width="18.181818181818183" height="18.181818181818183" style="fill:#ffffff;shape-rendering:crispEdges;"/>
  <rect x="327.2727272727273" y="72.72727272727273" width="18.181818181818183" height="18.181818181818183" style="fill:#ffffff;shape-rendering:crispEdges;"/>
  <rect x="345.4545454545455" y="72.72727272727273" width="18.181818181818183" height="18.181818181818183" style="fill:#ffffff;shape-rendering:crispEdges;"/>
  <rect x="363.6363636363637" y="72.72727272727273" width="18.181818181818183" height="18.181818181818183" style="fill:#ffffff;shape-rendering:crispEdges;"/>
  <rect x="400.00000000000006" y="72.72727272727273" width="18.181818181818183" height="18.181818181818183" style="fill:#ffffff;shape-rendering:crispEdges;"/>
  <rect x="418.18181818181824" y="72.72727272727273" width="18.181818181818183" height="18.181818181818183" style="fill:#ffffff;shape-rendering:crispEdges;"/>
  <rect x="436.36363636363643" y="72.72727272727273" width="18.181818181818183" height="18.181818181818183" style="fill:#ffffff;shape-rendering:crispEdges;"/>
  <rect x="454.5454545454546" y="72.72727272727273" width="18.181818181818183" height="18.181818181818183" style="fill:#ffffff;shape-rendering:crispEdges;"/>
  <rect x="472.7272727272728" y="72.72727272727273" width="18.181818181818183" height="18.181818181818183" style="fill:#ffffff;shape-rendering:crispEdges;"/>
  <rect x="490.909090909091" y="72.72727272727273" width="18.181818181818183" height="18.181818181818183" style="fill:#ffffff;shape-rendering:crispEdges;"/>
  <rect x="509.0909090909091" y="72.72727272727273" width="18.181818181818183" height="18.181818181818183" style="fill:#ffffff;shape-rendering:crispEdges;"/>
  <rect x="72.72727272727273" y="90.90909090909092" width="18.181818181818183" height="18.181818181818183" style="fill:#ffffff;shape-rendering:crispEdges;"/>
  <rect x="181.8181818181818" y="90.90909090909092" width="18.181818181818183" height="18.181818181818183" style="fill:#ffffff;shape-rendering:crispEdges;"/>
  <rect x="218.1818181818182" y="90.90909090909092" width="18.181818181818183" height="18.181818181818183" style="fill:#ffffff;shape-rendering:crispEdges;"/>
  <rect x="236.36363636363637" y="90.90909090909092" width="18.181818181818183" height="18.181818181818183" style="fill:#ffffff;shape-rendering:crispEdges;"/>
  <rect x="254.54545454545456" y="90.90909090909092" width="18.181818181818183" height="18.181818181818183" style="fill:#ffffff;shape-rendering:crispEdges;"/>
  <rect x="272.72727272727275" y="90.90909090909092" width="18.181818181818183" height="18.181818181818183" style="fill:#ffffff;shape-rendering:crispEdges;"/>
  <rect x="327.2727272727273" y="90.90909090909092" width="18.181818181818183" height="18.181818181818183" style="fill:#ffffff;shape-rendering:crispEdges;"/>
  <rect x="400.00000000000006" y="90.90909090909092" width="18.181818181818183" height="18.181818181818183" style="fill:#ffffff;shape-rendering:crispEdges;"/>
  <rect x="509.0909090909091" y="90.90909090909092" width="18.181818181818183" height="18.181818181818183" style="fill:#ffffff;shape-rendering:crispEdges;"/>
  <rect x="72.72727272727273" y="109.0909090909091" width="18.181818181818183" height="18.181818181818183" style="fill:#ffffff;shape-rendering:crispEdges;"/>
  <rect x="109.0909090909091" y="109.0909090909091" width="18.181818181818183" height="18.181818181818183" style="fill:#ffffff;shape-rendering:crispEdges;"/>
  <rect x="127.27272727272728" y="109.0909090909091" width="18.181818181818183" height="18.181818181818183" style="fill:#ffffff;shape-rendering:crispEdges;"/>
  <rect x="145.45454545454547" y="109.0909090909091" width="18.181818181818183" height="18.181818181818183" style="fill:#ffffff;shape-rendering:crispEdges;"/>
  <rect x="181.8181818181818" y="109.0909090909091" width="18.181818181818183" height="18.181818181818183" style="fill:#ffffff;shape-rendering:crispEdges;"/>
  <rect x="309.0909090909091" y="109.0909090909091" width="18.181818181818183" height="18.181818181818183" style="fill:#ffffff;shape-rendering:crispEdges;"/>
  <rect x="345.4545454545455" y="109.0909090909091" width="18.181818181818183" height="18.181818181818183" style="fill:#ffffff;shape-rendering:crispEdges;"/>
  <rect x="400.00000000000006" y="109.0909090909091" width="18.181818181818183" height="18.181818181818183" style="fill:#ffffff;shape-rendering:crispEdges;"/>
  <rect x="436.36363636363643" y="109.0909090909091" width="18.181818181818183" height="18.181818181818183" style="fill:#ffffff;shape-rendering:crispEdges;"/>
  <rect x="454.5454545454546" y="109.0909090909091" width="18.181818181818183" height="18.181818181818183" style="fill:#ffffff;shape-rendering:crispEdges;"/>
  <rect x="472.7272727272728" y="109.0909090909091" width="18.181818181818183" height="18.181818181818183" style="fill:#ffffff;shape-rendering:crispEdges;"/>
  <rect x="509.0909090909091" y="109.0909090909091" width="18.181818181818183" height="18.181818181818183" style="fill:#ffffff;shape-rendering:crispEdges;"/>
  <rect x="72.72727272727273" y="127.27272727272728" width="18.181818181818183" height="18.181818181818183" style="fill:#ffffff;shape-rendering:crispEdges;"/>
  <rect x="109.0909090909091" y="127.27272727272728" width="18.181818181818183" height="18.181818181818183" style="fill:#ffffff;shape-rendering:crispEdges;"/>
  <rect x="127.27272727272728" y="127.27272727272728" width="18.181818181818183" height="18.181818181818183" style="fill:#ffffff;shape-rendering:crispEdges;"/>
  <rect x="145.45454545454547" y="127.27272727272728" width="18.181818181818183" height="18.181818181818183" style="fill:#ffffff;shape-rendering:crispEdges;"/>
  <rect x="181.8181818181818" y="127.27272727272728" width="18.181818181818183" height="18.181818181818183" style="fill:#ffffff;shape-rendering:crispEdges;"/>
  <rect x="218.1818181818182" y="127.27272727272728" width="18.181818181818183" height="18.181818181818183" style="fill:#ffffff;shape-rendering:crispEdges;"/>
  <rect x="272.72727272727275" y="127.27272727272728" width="18.181818181818183" height="18.181818181818183" style="fill:#ffffff;shape-rendering:crispEdges;"/>
  <rect x="309.0909090909091" y="127.27272727272728" width="18.181818181818183" height="18.181818181818183" style="fill:#ffffff;shape-rendering:crispEdges;"/>
  <rect x="400.00000000000006" y="127.27272727272728" width="18.181818181818183" height="18.181818181818183" style="fill:#ffffff;shape-rendering:crispEdges;"/>
  <rect x="436.36363636363643" y="127.27272727272728" width="18.181818181818183" height="18.181818181818183" style="fill:#ffffff;shape-rendering:crispEdges;"/>
  <rect x="454.5454545454546" y="127.27272727272728" width="18.181818181818183" height="18.181818181818183" style="fill:#ffffff;shape-rendering:crispEdges;"/>
  <rect x="472.7272727272728" y="127.27272727272728" width="18.181818181818183" height="18.181818181818183" style="fill:#ffffff;shape-rendering:crispEdges;"/>
  <rect x="509.0909090909091" y="127.27272727272728" width="18.181818181818183" height="18.181818181818183" style="fill:#ffffff;shape-rendering:crispEdges;"/>
  <rect x="72.72727272727273" y="145.45454545454547" width="18.181818181818183" height="18.181818181818183" style="fill:#ffffff;shape-rendering:crispEdges;"/>
  <rect x="109.0909090909091" y="145.45454545454547" width="18.181818181818183" height="18.181818181818183" style="fill:#ffffff;shape-rendering:crispEdges;"/>
  <rect x="127.27272727272728" y="145.45454545454547" width="18.181818181818183" height="18.181818181818183" style="fill:#ffffff;shape-rendering:crispEdges;"/>
  <rect x="145.45454545454547" y="145.45454545454547" width="18.181818181818183" height="18.181818181818183" style="fill:#ffffff;shape-rendering:crispEdges;"/>
  <rect x="181.8181818181818" y="145.45454545454547" width="18.181818181818183" height="18.181818181818183" style="fill:#ffffff;shape-rendering:crispEdges;"/>
  <rect x="218.1818181818182" y="145.45454545454547" width="18.181818181818183" height="18.181818181818183" style="fill:#ffffff;shape-rendering:crispEdges;"/>
  <rect x="236.36363636363637" y="145.45454545454547" width="18.181818181818183" height="18.181818181818183" style="fill:#ffffff;shape-rendering:crispEdges;"/>
  <rect x="254.54545454545456" y="145.45454545454547" width="18.181818181818183" height="18.181818181818183" style="fill:#ffffff;shape-rendering:crispEdges;"/>
  <rect x="290.90909090909093" y="145.45454545454547" width="18.181818181818183" height="18.181818181818183" style="fill:#ffffff;shape-rendering:crispEdges;"/>
  <rect x="327.2727272727273" y="145.45454545454547" width="18.181818181818183" height="18.181818181818183" style="fill:#ffffff;shape-rendering:crispEdges;"/>
  <rect x="345.4545454545455" y="145.45454545454547" width="18.181818181818183" height="18.181818181818183" style="fill:#ffffff;shape-rendering:crispEdges;"/>
  <rect x="363.6363636363637" y="145.45454545454547" width="18.181818181818183" height="18.181818181818183" style="fill:#ffffff;shape-rendering:crispEdges;"/>
  <rect x="400.00000000000006" y="145.45454545454547" width="18.181818181818183" height="18.181818181818183" style="fill:#ffffff;shape-rendering:crispEdges;"/>
  <rect x="436.36363636363643" y="145.45454545454547" width="18.181818181818183" height="18.181818181818183" style="fill:#ffffff;shape-rendering:crispEdges;"/>
  <rect x="454.5454545454546" y="145.45454545454547" width="18.181818181818183" height="18.181818181818183" style="fill:#ffffff;shape-rendering:crispEdges;"/>
  <rect x="472.7272727272728" y="145.45454545454547" width="18.181818181818183" height="18.181818181818183" style="fill:#ffffff;shape-rendering:crispEdges;"/>
  <rect x="509.0909090909091" y="145.45454545454547" width="18.181818181818183" height="18.181818181818183" style="fill:#ffffff;shape-rendering:crispEdges;"/>
  <rect x="72.72727272727273" y="163.63636363636365" width="18.181818181818183" height="18.181818181818183" style="fill:#ffffff;shape-rendering:crispEdges;"/>
  <rect x="181.8181818181818" y="163.63636363636365" width="18.181818181818183" height="18.181818181818183" style="fill:#ffffff;shape-rendering:crispEdges;"/>
  <rect x="254.54545454545456" y="163.63636363636365" width="18.181818181818183" height="18.181818181818183" style="fill:#ffffff;shape-rendering:crispEdges;"/>
  <rect x="272.72727272727275" y="163.63636363636365" width="18.181818181818183" height="18.181818181818183" style="fill:#ffffff;shape-rendering:crispEdges;"/>
  <rect x="290.90909090909093" y="163.63636363636365" width="18.181818181818183" height="18.181818181818183" style="fill:#ffffff;shape-rendering:crispEdges;"/>
  <rect x="309.0909090909091" y="163.63636363636365" width="18.181818181818183" height="18.181818181818183" style="fill:#ffffff;shape-rendering:crispEdges;"/>
  <rect x="400.00000000000006" y="163.63636363636365" width="18.181818181818183" height="18.181818181818183" style="fill:#ffffff;shape-rendering:crispEdges;"/>
  <rect x="509.0909090909091" y="163.63636363636365" width="18.181818181818183" height="18.181818181818183" style="fill:#ffffff;shape-rendering:crispEdges;"/>
  <rect x="72.72727272727273" y="181.8181818181818" width="18.181818181818183" height="18.181818181818183" style="fill:#ffffff;shape-rendering:crispEdges;"/>
  <rect x="90.90909090909092" y="181.8181818181818" width="18.181818181818183" height="18.181818181818183" style="fill:#ffffff;shape-rendering:crispEdges;"/>
  <rect x="109.0909090909091" y="181.8181818181818" width="18.181818181818183" height="18.181818181818183" style="fill:#ffffff;shape-rendering:crispEdges;"/>
  <rect x="127.27272727272728" y="181.8181818181818" width="18.181818181818183" height="18.181818181818183" style="fill:#ffffff;shape-rendering:crispEdges;"/>
  <rect x="145.45454545454547" y="181.8181818181818" width="18.181818181818183" height="18.181818181818183" style="fill:#ffffff;shape-rendering:crispEdges;"/>
  <rect x="163.63636363636365" y="181.8181818181818" width="18.181818181818183" height="18.181818181818183" style="fill:#ffffff;shape-rendering:crispEdges;"/>
  <rect x="181.8181818181818" y="181.8181818181818" width="18.181818181818183" height="18.181818181818183" style="fill:#ffffff;shape-rendering:crispEdges;"/>
  <rect x="218.1818181818182" y="181.8181818181818" width="18.181818181818183" height="18.181818181818183" style="fill:#ffffff;shape-rendering:crispEdges;"/>
  <rect x="254.54545454545456" y="181.8181818181818" width="18.181818181818183" height="18.181818181818183" style="fill:#ffffff;shape-rendering:crispEdges;"/>
  <rect x="290.90909090909093" y="181.8181818181818" width="18.181818181818183" height="18.181818181818183" style="fill:#ffffff;shape-rendering:crispEdges;"/>
  <rect x="327.2727272727273" y="181.8181818181818" width="18.181818181818183" height="18.181818181818183" style="fill:#ffffff;shape-rendering:crispEdges;"/>
  <rect x="363.6363636363637" y="181.8181818181818" width="18.181818181818183" height="18.181818181818183" style="fill:#ffffff;shape-rendering:crispEdges;"/>
  <rect x="400.00000000000006" y="181.8181818181818" width="18.181818181818183" height="18.181818181818183" style="fill:#ffffff;shape-rendering:crispEdges;"/>
  <rect x="418.18181818181824" y="181.8181818181818" width="18.181818181818183" height="18.181818181818183" style="fill:#ffffff;shape-rendering:crispEdges;"/>
  <rect x="436.36363636363643" y="181.8181818181818" width="18.181818181818183" height="18.181818181818183" style="fill:#ffffff;shape-rendering:crispEdges;"/>
  <rect x="454.5454545454546" y="181.8181818181818" width="18.181818181818183" height="18.181818181818183" style="fill:#ffffff;shape-rendering:crispEdges;"/>
  <rect x="472.7272727272728" y="181.8181818181818" width="18.181818181818183" height="18.181818181818183" style="fill:#ffffff;shape-rendering:crispEdges;"/>
  <rect x="490.909090909091" y="181.8181818181818" width="18.181818181818183" height="18.181818181818183" style="fill:#ffffff;shape-rendering:crispEdges;"/>
  <rect x="509.0909090909091" y="181.8181818181818" width="18.181818181818183" height="18.181818181818183" style="fill:#ffffff;shape-rendering:crispEdges;"/>
  <rect x="309.0909090909091" y="200" width="18.181818181818183" height="18.181818181818183" style="fill:#ffffff;shape-rendering:crispEdges;"/>
  <rect x="345.4545454545455" y="200" width="18.181818181818183" height="18.181818181818183" style="fill:#ffffff;shape-rendering:crispEdges;"/>
  <rect x="363.6363636363637" y="200" width="18.181818181818183" height="18.181818181818183" style="fill:#ffffff;shape-rendering:crispEdges;"/>
  <rect x="72.72727272727273" y="218.1818181818182" width="18.181818181818183" height="18.181818181818183" style="fill:#ffffff;shape-rendering:crispEdges;"/>
  <rect x="181.8181818181818" y="218.1818181818182" width="18.181818181818183" height="18.181818181818183" style="fill:#ffffff;shape-rendering:crispEdges;"/>
  <rect x="200" y="218.1818181818182" width="18.181818181818183" height="18.181818181818183" style="fill:#ffffff;shape-rendering:crispEdges;"/>
  <rect x="236.36363636363637" y="218.1818181818182" width="18.181818181818183" height="18.181818181818183" style="fill:#ffffff;shape-rendering:crispEdges;"/>
  <rect x="254.54545454545456" y="218.1818181818182" width="18.181818181818183" height="18.181818181818183" style="fill:#ffffff;shape-rendering:crispEdges;"/>
  <rect x="290.90909090909093" y="218.1818181818182" width="18.181818181818183" height="18.181818181818183" style="fill:#ffffff;shape-rendering:crispEdges;"/>
  <rect x="327.2727272727273" y="218.1818181818182" width="18.181818181818183" height="18.181818181818183" style="fill:#ffffff;shape-rendering:crispEdges;"/>
  <rect x="345.4545454545455" y="218.1818181818182" width="18.181818181818183" height="18.181818181818183" style="fill:#ffffff;shape-rendering:crispEdges;"/>
  <rect x="363.6363636363637" y="218.1818181818182" width="18.181818181818183" height="18.181818181818183" style="fill:#ffffff;shape-rendering:crispEdges;"/>
  <rect x="381.81818181818187" y="218.1818181818182" width="18.181818181818183" height="18.181818181818183" style="fill:#ffffff;shape-rendering:crispEdges;"/>
  <rect x="436.36363636363643" y="218.1818181818182" width="18.181818181818183" height="18.181818181818183" style="fill:#ffffff;shape-rendering:crispEdges;"/>
  <rect x="454.5454545454546" y="218.1818181818182" width="18.181818181818183" height="18.181818181818183" style="fill:#ffffff;shape-rendering:crispEdges;"/>
  <rect x="490.909090909091" y="218.1818181818182" width="18.181818181818183" height="18.181818181818183" style="fill:#ffffff;shape-rendering:crispEdges;"/>
  <rect x="509.0909090909091" y="218.1818181818182" width="18.181818181818183" height="18.181818181818183" style="fill:#ffffff;shape-rendering:crispEdges;"/>
  <rect x="90.90909090909092" y="236.36363636363637" width="18.181818181818183" height="18.181818181818183" style="fill:#ffffff;shape-rendering:crispEdges;"/>
  <rect x="145.45454545454547" y="236.36363636363637" width="18.181818181818183" height="18.181818181818183" style="fill:#ffffff;shape-rendering:crispEdges;"/>
  <rect x="218.1818181818182" y="236.36363636363637" width="18.181818181818183" height="18.181818181818183" style="fill:#ffffff;shape-rendering:crispEdges;"/>
  <rect x="236.36363636363637" y="236.36363636363637" width="18.181818181818183" height="18.181818181818183" style="fill:#ffffff;shape-rendering:crispEdges;"/>
  <rect x="272.72727272727275" y="236.36363636363637" width="18.181818181818183" height="18.181818181818183" style="fill:#ffffff;shape-rendering:crispEdges;"/>
  <rect x="290.90909090909093" y="236.36363636363637" width="18.181818181818183" height="18.181818181818183" style="fill:#ffffff;shape-rendering:crispEdges;"/>
  <rect x="363.6363636363637" y="236.36363636363637" width="18.181818181818183" height="18.181818181818183" style="fill:#ffffff;shape-rendering:crispEdges;"/>
  <rect x="418.18181818181824" y="236.36363636363637" width="18.181818181818183" height="18.181818181818183" style="fill:#ffffff;shape-rendering:crispEdges;"/>
  <rect x="436.36363636363643" y="236.36363636363637" width="18.181818181818183" height="18.181818181818183" style="fill:#ffffff;shape-rendering:crispEdges;"/>
  <rect x="454.5454545454546" y="236.36363636363637" width="18.181818181818183" height="18.181818181818183" style="fill:#ffffff;shape-rendering:crispEdges;"/>
  <rect x="509.0909090909091" y="236.36363636363637" width="18.181818181818183" height="18.181818181818183" style="fill:#ffffff;shape-rendering:crispEdges;"/>
  <rect x="90.90909090909092" y="254.54545454545456" width="18.181818181818183" height="18.181818181818183" style="fill:#ffffff;shape-rendering:crispEdges;"/>
  <rect x="109.0909090909091" y="254.54545454545456" width="18.181818181818183" height="18.181818181818183" style="fill:#ffffff;shape-rendering:crispEdges;"/>
  <rect x="163.63636363636365" y="254.54545454545456" width="18.181818181818183" height="18.181818181818183" style="fill:#ffffff;shape-rendering:crispEdges;"/>
  <rect x="181.8181818181818" y="254.54545454545456" width="18.181818181818183" height="18.181818181818183" style="fill:#ffffff;shape-rendering:crispEdges;"/>
  <rect x="200" y="254.54545454545456" width="18.181818181818183" height="18.181818181818183" style="fill:#ffffff;shape-rendering:crispEdges;"/>
  <rect x="218.1818181818182" y="254.54545454545456" width="18.181818181818183" height="18.181818181818183" style="fill:#ffffff;shape-rendering:crispEdges;"/>
  <rect x="254.54545454545456" y="254.54545454545456" width="18.181818181818183" height="18.181818181818183" style="fill:#ffffff;shape-rendering:crispEdges;"/>
  <rect x="272.72727272727275" y="254.54545454545456" width="18.181818181818183" height="18.181818181818183" style="fill:#ffffff;shape-rendering:crispEdges;"/>
  <rect x="327.2727272727273" y="254.54545454545456" width="18.181818181818183" height="18.181818181818183" style="fill:#ffffff;shape-rendering:crispEdges;"/>
  <rect x="345.4545454545455" y="254.54545454545456" width="18.181818181818183" height="18.181818181818183" style="fill:#ffffff;shape-rendering:crispEdges;"/>
  <rect x="418.18181818181824" y="254.54545454545456" width="18.181818181818183" height="18.181818181818183" style="fill:#ffffff;shape-rendering:crispEdges;"/>
  <rect x="436.36363636363643" y="254.54545454545456" width="18.181818181818183" height="18.181818181818183" style="fill:#ffffff;shape-rendering:crispEdges;"/>
  <rect x="454.5454545454546" y="254.54545454545456" width="18.181818181818183" height="18.181818181818183" style="fill:#ffffff;shape-rendering:crispEdges;"/>
  <rect x="490.909090909091" y="254.54545454545456" width="18.181818181818183" height="18.181818181818183" style="fill:#ffffff;shape-rendering:crispEdges;"/>
  <rect x="509.0909090909091" y="254.54545454545456" width="18.181818181818183" height="18.181818181818183" style="fill:#ffffff;shape-rendering:crispEdges;"/>
  <rect x="72.72727272727273" y="272.72727272727275" width="18.181818181818183" height="18.181818181818183" style="fill:#ffffff;shape-rendering:crispEdges;"/>
  <rect x="145.45454545454547" y="272.72727272727275" width="18.181818181818183" height="18.181818181818183" style="fill:#ffffff;shape-rendering:crispEdges;"/>
  <rect x="200" y="272.72727272727275" width="18.181818181818183" height="18.181818181818183" style="fill:#ffffff;shape-rendering:crispEdges;"/>
  <rect x="218.1818181818182" y="272.72727272727275" width="18.181818181818183" height="18.181818181818183" style="fill:#ffffff;shape-rendering:crispEdges;"/>
  <rect x="254.54545454545456" y="272.72727272727275" width="18.181818181818183" height="18.181818181818183" style="fill:#ffffff;shape-rendering:crispEdges;"/>
  <rect x="272.72727272727275" y="272.72727272727275" width="18.181818181818183" height="18.181818181818183" style="fill:#ffffff;shape-rendering:crispEdges;"/>
  <rect x="290.90909090909093" y="272.72727272727275" width="18.181818181818183" height="18.181818181818183" style="fill:#ffffff;shape-rendering:crispEdges;"/>
  <rect x="327.2727272727273" y="272.72727272727275" width="18.181818181818183" height="18.181818181818183" style="fill:#ffffff;shape-rendering:crispEdges;"/>
  <rect x="345.4545454545455" y="272.72727272727275" width="18.181818181818183" height="18.181818181818183" style="fill:#ffffff;shape-rendering:crispEdges;"/>
  <rect x="381.81818181818187" y="272.72727272727275" width="18.181818181818183" height="18.181818181818183" style="fill:#ffffff;shape-rendering:crispEdges;"/>
  <rect x="400.00000000000006" y="272.72727272727275" width="18.181818181818183" height="18.181818181818183" style="fill:#ffffff;shape-rendering:crispEdges;"/>
  <rect x="72.72727272727273" y="290.90909090909093" width="18.181818181818183" height="18.181818181818183" style="fill:#ffffff;shape-rendering:crispEdges;"/>
  <rect x="109.0909090909091" y="290.90909090909093" width="18.181818181818183" height="18.181818181818183" style="fill:#ffffff;shape-rendering:crispEdges;"/>
  <rect x="127.27272727272728" y="290.90909090909093" width="18.181818181818183" height="18.181818181818183" style="fill:#ffffff;shape-rendering:crispEdges;"/>
  <rect x="163.63636363636365" y="290.90909090909093" width="18.181818181818183" height="18.181818181818183" style="fill:#ffffff;shape-rendering:crispEdges;"/>
  <rect x="181.8181818181818" y="290.90909090909093" width="18.181818181818183" height="18.181818181818183" style="fill:#ffffff;shape-rendering:crispEdges;"/>
  <rect x="236.36363636363637" y="290.90909090909093" width="18.181818181818183" height="18.181818181818183" style="fill:#ffffff;shape-rendering:crispEdges;"/>
  <rect x="272.72727272727275" y="290.90909090909093" width="18.181818181818183" height="18.181818181818183" style="fill:#ffffff;shape-rendering:crispEdges;"/>
  <rect x="290.90909090909093" y="290.90909090909093" width="18.181818181818183" height="18.181818181818183" style="fill:#ffffff;shape-rendering:crispEdges;"/>
  <rect x="327.2727272727273" y="290.90909090909093" width="18.181818181818183" height="18.181818181818183" style="fill:#ffffff;shape-rendering:crispEdges;"/>
  <rect x="381.81818181818187" y="290.90909090909093" width="18.181818181818183" height="18.181818181818183" style="fill:#ffffff;shape-rendering:crispEdges;"/>
  <rect x="418.18181818181824" y="290.90909090909093" width="18.181818181818183" height="18.181818181818183" style="fill:#ffffff;shape-rendering:crispEdges;"/>
  <rect x="436.36363636363643" y="290.90909090909093" width="18.181818181818183" height="18.181818181818183" style="fill:#ffffff;shape-rendering:crispEdges;"/>
  <rect x="472.7272727272728" y="290.90909090909093" width="18.181818181818183" height="18.181818181818183" style="fill:#ffffff;shape-rendering:crispEdges;"/>
  <rect x="72.72727272727273" y="309.0909090909091" width="18.181818181818183" height="18.181818181818183" style="fill:#ffffff;shape-rendering:crispEdges;"/>
  <rect x="90.90909090909092" y="309.0909090909091" width="18.181818181818183" height="18.181818181818183" style="fill:#ffffff;shape-rendering:crispEdges;"/>
  <rect x="109.0909090909091" y="309.0909090909091" width="18.181818181818183" height="18.181818181818183" style="fill:#ffffff;shape-rendering:crispEdges;"/>
  <rect x="127.27272727272728" y="309.0909090909091" width="18.181818181818183" height="18.181818181818183" style="fill:#ffffff;shape-rendering:crispEdges;"/>
  <rect x="145.45454545454547" y="309.0909090909091" width="18.181818181818183" height="18.181818181818183" style="fill:#ffffff;shape-rendering:crispEdges;"/>
  <rect x="200" y="309.0909090909091" width="18.181818181818183" height="18.181818181818183" style="fill:#ffffff;shape-rendering:crispEdges;"/>
  <rect x="218.1818181818182" y="309.0909090909091" width="18.181818181818183" height="18.181818181818183" style="fill:#ffffff;shape-rendering:crispEdges;"/>
  <rect x="236.36363636363637" y="309.0909090909091" width="18.181818181818183" height="18.181818181818183" style="fill:#ffffff;shape-rendering:crispEdges;"/>
  <rect x="254.54545454545456" y="309.0909090909091" width="18.181818181818183" height="18.181818181818183" style="fill:#ffffff;shape-rendering:crispEdges;"/>
  <rect x="272.72727272727275" y="309.0909090909091" width="18.181818181818183" height="18.181818181818183" style="fill:#ffffff;shape-rendering:crispEdges;"/>
  <rect x="290.90909090909093" y="309.0909090909091" width="18.181818181818183" height="18.181818181818183" style="fill:#ffffff;shape-rendering:crispEdges;"/>
  <rect x="309.0909090909091" y="309.0909090909091" width="18.181818181818183" height="18.181818181818183" style="fill:#ffffff;shape-rendering:crispEdges;"/>
  <rect x="327.2727272727273" y="309.0909090909091" width="18.181818181818183" height="18.181818181818183" style="fill:#ffffff;shape-rendering:crispEdges;"/>
  <rect x="381.81818181818187" y="309.0909090909091" width="18.181818181818183" height="18.181818181818183" style="fill:#ffffff;shape-rendering:crispEdges;"/>
  <rect x="436.36363636363643" y="309.0909090909091" width="18.181818181818183" height="18.181818181818183" style="fill:#ffffff;shape-rendering:crispEdges;"/>
  <rect x="509.0909090909091" y="309.0909090909091" width="18.181818181818183" height="18.181818181818183" style="fill:#ffffff;shape-rendering:crispEdges;"/>
  <rect x="72.72727272727273" y="327.2727272727273" width="18.181818181818183" height="18.181818181818183" style="fill:#ffffff;shape-rendering:crispEdges;"/>
  <rect x="90.90909090909092" y="327.2727272727273" width="18.181818181818183" height="18.181818181818183" style="fill:#ffffff;shape-rendering:crispEdges;"/>
  <rect x="109.0909090909091" y="327.2727272727273" width="18.181818181818183" height="18.181818181818183" style="fill:#ffffff;shape-rendering:crispEdges;"/>
  <rect x="145.45454545454547" y="327.2727272727273" width="18.181818181818183" height="18.181818181818183" style="fill:#ffffff;shape-rendering:crispEdges;"/>
  <rect x="163.63636363636365" y="327.2727272727273" width="18.181818181818183" height="18.181818181818183" style="fill:#ffffff;shape-rendering:crispEdges;"/>
  <rect x="181.8181818181818" y="327.2727272727273" width="18.181818181818183" height="18.181818181818183" style="fill:#ffffff;shape-rendering:crispEdges;"/>
  <rect x="200" y="327.2727272727273" width="18.181818181818183" height="18.181818181818183" style="fill:#ffffff;shape-rendering:crispEdges;"/>
  <rect x="236.36363636363637" y="327.2727272727273" width="18.181818181818183" height="18.181818181818183" style="fill:#ffffff;shape-rendering:crispEdges;"/>
  <rect x="309.0909090909091" y="327.2727272727273" width="18.181818181818183" height="18.181818181818183" style="fill:#ffffff;shape-rendering:crispEdges;"/>
  <rect x="363.6363636363637" y="327.2727272727273" width="18.181818181818183" height="18.181818181818183" style="fill:#ffffff;shape-rendering:crispEdges;"/>
  <rect x="381.81818181818187" y="327.2727272727273" width="18.181818181818183" height="18.181818181818183" style="fill:#ffffff;shape-rendering:crispEdges;"/>
  <rect x="418.18181818181824" y="327.2727272727273" width="18.181818181818183" height="18.181818181818183" style="fill:#ffffff;shape-rendering:crispEdges;"/>
  <rect x="436.36363636363643" y="327.2727272727273" width="18.181818181818183" height="18.181818181818183" style="fill:#ffffff;shape-rendering:crispEdges;"/>
  <rect x="454.5454545454546" y="327.2727272727273" width="18.181818181818183" height="18.181818181818183" style="fill:#ffffff;shape-rendering:crispEdges;"/>
  <rect x="472.7272727272728" y="327.2727272727273" width="18.181818181818183" height="18.181818181818183" style="fill:#ffffff;shape-rendering:crispEdges;"/>
  <rect x="490.909090909091" y="327.2727272727273" width="18.181818181818183" height="18.181818181818183" style="fill:#ffffff;shape-rendering:crispEdges;"/>
  <rect x="509.0909090909091" y="327.2727272727273" width="18.181818181818183" height="18.181818181818183" style="fill:#ffffff;shape-rendering:crispEdges;"/>
  <rect x="109.0909090909091" y="345.4545454545455" width="18.181818181818183" height="18.181818181818183" style="fill:#ffffff;shape-rendering:crispEdges;"/>
  <rect x="236.36363636363637" y="345.4545454545455" width="18.181818181818183" height="18.181818181818183" style="fill:#ffffff;shape-rendering:crispEdges;"/>
  <rect x="254.54545454545456" y="345.4545454545455" width="18.181818181818183" height="18.181818181818183" style="fill:#ffffff;shape-rendering:crispEdges;"/>
  <rect x="272.72727272727275" y="345.4545454545455" width="18.181818181818183" height="18.181818181818183" style="fill:#ffffff;shape-rendering:crispEdges;"/>
  <rect x="290.90909090909093" y="345.4545454545455" width="18.181818181818183" height="18.181818181818183" style="fill:#ffffff;shape-rendering:crispEdges;"/>
  <rect x="309.0909090909091" y="345.4545454545455" width="18.181818181818183" height="18.181818181818183" style="fill:#ffffff;shape-rendering:crispEdges;"/>
  <rect x="327.2727272727273" y="345.4545454545455" width="18.181818181818183" height="18.181818181818183" style="fill:#ffffff;shape-rendering:crispEdges;"/>
  <rect x="418.18181818181824" y="345.4545454545455" width="18.181818181818183" height="18.181818181818183" style="fill:#ffffff;shape-rendering:crispEdges;"/>
  <rect x="436.36363636363643" y="345.4545454545455" width="18.181818181818183" height="18.181818181818183" style="fill:#ffffff;shape-rendering:crispEdges;"/>
  <rect x="145.45454545454547" y="363.6363636363637" width="18.181818181818183" height="18.181818181818183" style="fill:#ffffff;shape-rendering:crispEdges;"/>
  <rect x="181.8181818181818" y="363.6363636363637" width="18.181818181818183" height="18.181818181818183" style="fill:#ffffff;shape-rendering:crispEdges;"/>
  <rect x="218.1818181818182" y="363.6363636363637" width="18.181818181818183" height="18.181818181818183" style="fill:#ffffff;shape-rendering:crispEdges;"/>
  <rect x="254.54545454545456" y="363.6363636363637" width="18.181818181818183" height="18.181818181818183" style="fill:#ffffff;shape-rendering:crispEdges;"/>
  <rect x="290.90909090909093" y="363.6363636363637" width="18.181818181818183" height="18.181818181818183" style="fill:#ffffff;shape-rendering:crispEdges;"/>
  <rect x="309.0909090909091" y="363.6363636363637" width="18.181818181818183" height="18.181818181818183" style="fill:#ffffff;shape-rendering:crispEdges;"/>
  <rect x="345.4545454545455" y="363.6363636363637" width="18.181818181818183" height="18.181818181818183" style="fill:#ffffff;shape-rendering:crispEdges;"/>
  <rect x="363.6363636363637" y="363.6363636363637" width="18.181818181818183" height="18.181818181818183" style="fill:#ffffff;shape-rendering:crispEdges;"/>
  <rect x="381.81818181818187" y="363.6363636363637" width="18.181818181818183" height="18.181818181818183" style="fill:#ffffff;shape-rendering:crispEdges;"/>
  <rect x="400.00000000000006" y="363.6363636363637" width="18.181818181818183" height="18.181818181818183" style="fill:#ffffff;shape-rendering:crispEdges;"/>
  <rect x="418.18181818181824" y="363.6363636363637" width="18.181818181818183" height="18.181818181818183" style="fill:#ffffff;shape-rendering:crispEdges;"/>
  <rect x="436.36363636363643" y="363.6363636363637" width="18.181818181818183" height="18.181818181818183" style="fill:#ffffff;shape-rendering:crispEdges;"/>
  <rect x="454.5454545454546" y="363.6363636363637" width="18.181818181818183" height="18.181818181818183" style="fill:#ffffff;shape-rendering:crispEdges;"/>
  <rect x="509.0909090909091" y="363.6363636363637" width="18.181818181818183" height="18.181818181818183" style="fill:#ffffff;shape-rendering:crispEdges;"/>
  <rect x="254.54545454545456" y="381.81818181818187" width="18.181818181818183" height="18.181818181818183" style="fill:#ffffff;shape-rendering:crispEdges;"/>
  <rect x="327.2727272727273" y="381.81818181818187" width="18.181818181818183" height="18.181818181818183" style="fill:#ffffff;shape-rendering:crispEdges;"/>
  <rect x="363.6363636363637" y="381.81818181818187" width="18.181818181818183" height="18.181818181818183" style="fill:#ffffff;shape-rendering:crispEdges;"/>
  <rect x="436.36363636363643" y="381.81818181818187" width="18.181818181818183" height="18.181818181818183" style="fill:#ffffff;shape-rendering:crispEdges;"/>
  <rect x="472.7272727272728" y="381.81818181818187" width="18.181818181818183" height="18.181818181818183" style="fill:#ffffff;shape-rendering:crispEdges;"/>
  <rect x="509.0909090909091" y="381.81818181818187" width="18.181818181818183" height="18.181818181818183" style="fill:#ffffff;shape-rendering:crispEdges;"/>
  <rect x="72.72727272727273" y="400.00000000000006" width="18.181818181818183" height="18.181818181818183" style="fill:#ffffff;shape-rendering:crispEdges;"/>
  <rect x="90.90909090909092" y="400.00000000000006" width="18.181818181818183" height="18.181818181818183" style="fill:#ffffff;shape-rendering:crispEdges;"/>
  <rect x="109.0909090909091" y="400.00000000000006" width="18.181818181818183" height="18.181818181818183" style="fill:#ffffff;shape-rendering:crispEdges;"/>
  <rect x="127.27272727272728" y="400.00000000000006" width="18.181818181818183" height="18.181818181818183" style="fill:#ffffff;shape-rendering:crispEdges;"/>
  <rect x="145.45454545454547" y="400.00000000000006" width="18.181818181818183" height="18.181818181818183" style="fill:#ffffff;shape-rendering:crispEdges;"/>
  <rect x="163.63636363636365" y="400.00000000000006" width="18.181818181818183" height="18.181818181818183" style="fill:#ffffff;shape-rendering:crispEdges;"/>
  <rect x="181.8181818181818" y="400.00000000000006" width="18.181818181818183" height="18.181818181818183" style="fill:#ffffff;shape-rendering:crispEdges;"/>
  <rect x="218.1818181818182" y="400.00000000000006" width="18.181818181818183" height="18.181818181818183" style="fill:#ffffff;shape-rendering:crispEdges;"/>
  <rect x="272.72727272727275" y="400.00000000000006" width="18.181818181818183" height="18.181818181818183" style="fill:#ffffff;shape-rendering:crispEdges;"/>
  <rect x="290.90909090909093" y="400.00000000000006" width="18.181818181818183" height="18.181818181818183" style="fill:#ffffff;shape-rendering:crispEdges;"/>
  <rect x="363.6363636363637" y="400.00000000000006" width="18.181818181818183" height="18.181818181818183" style="fill:#ffffff;shape-rendering:crispEdges;"/>
  <rect x="400.00000000000006" y="400.00000000000006" width="18.181818181818183" height="18.181818181818183" style="fill:#ffffff;shape-rendering:crispEdges;"/>
  <rect x="436.36363636363643" y="400.00000000000006" width="18.181818181818183" height="18.181818181818183" style="fill:#ffffff;shape-rendering:crispEdges;"/>
  <rect x="454.5454545454546" y="400.00000000000006" width="18.181818181818183" height="18.181818181818183" style="fill:#ffffff;shape-rendering:crispEdges;"/>
  <rect x="72.72727272727273" y="418.18181818181824" width="18.181818181818183" height="18.181818181818183" style="fill:#ffffff;shape-rendering:crispEdges;"/>
  <rect x="181.8181818181818" y="418.18181818181824" width="18.181818181818183" height="18.181818181818183" style="fill:#ffffff;shape-rendering:crispEdges;"/>
  <rect x="236.36363636363637" y="418.18181818181824" width="18.181818181818183" height="18.181818181818183" style="fill:#ffffff;shape-rendering:crispEdges;"/>
  <rect x="272.72727272727275" y="418.18181818181824" width="18.181818181818183" height="18.181818181818183" style="fill:#ffffff;shape-rendering:crispEdges;"/>
  <rect x="290.90909090909093" y="418.18181818181824" width="18.181818181818183" height="18.181818181818183" style="fill:#ffffff;shape-rendering:crispEdges;"/>
  <rect x="363.6363636363637" y="418.18181818181824" width="18.181818181818183" height="18.181818181818183" style="fill:#ffffff;shape-rendering:crispEdges;"/>
  <rect x="436.36363636363643" y="418.18181818181824" width="18.181818181818183" height="18.181818181818183" style="fill:#ffffff;shape-rendering:crispEdges;"/>
  <rect x="472.7272727272728" y="418.18181818181824" width="18.181818181818183" height="18.181818181818183" style="fill:#ffffff;shape-rendering:crispEdges;"/>
  <rect x="490.909090909091" y="418.18181818181824" width="18.181818181818183" height="18.181818181818183" style="fill:#ffffff;shape-rendering:crispEdges;"/>
  <rect x="72.72727272727273" y="436.36363636363643" width="18.181818181818183" height="18.181818181818183" style="fill:#ffffff;shape-rendering:crispEdges;"/>
  <rect x="109.0909090909091" y="436.36363636363643" width="18.181818181818183" height="18.181818181818183" style="fill:#ffffff;shape-rendering:crispEdges;"/>
  <rect x="127.27272727272728" y="436.36363636363643" width="18.181818181818183" height="18.181818181818183" style="fill:#ffffff;shape-rendering:crispEdges;"/>
  <rect x="145.45454545454547" y="436.36363636363643" width="18.181818181818183" height="18.181818181818183" style="fill:#ffffff;shape-rendering:crispEdges;"/>
  <rect x="181.8181818181818" y="436.36363636363643" width="18.181818181818183" height="18.181818181818183" style="fill:#ffffff;shape-rendering:crispEdges;"/>
  <rect x="236.36363636363637" y="436.36363636363643" width="18.181818181818183" height="18.181818181818183" style="fill:#ffffff;shape-rendering:crispEdges;"/>
  <rect x="254.54545454545456" y="436.36363636363643" width="18.181818181818183" height="18.181818181818183" style="fill:#ffffff;shape-rendering:crispEdges;"/>
  <rect x="272.72727272727275" y="436.36363636363643" width="18.181818181818183" height="18.181818181818183" style="fill:#ffffff;shape-rendering:crispEdges;"/>
  <rect x="309.0909090909091" y="436.36363636363643" width="18.181818181818183" height="18.181818181818183" style="fill:#ffffff;shape-rendering:crispEdges;"/>
  <rect x="327.2727272727273" y="436.36363636363643" width="18.181818181818183" height="18.181818181818183" style="fill:#ffffff;shape-rendering:crispEdges;"/>
  <rect x="345.4545454545455" y="436.36363636363643" width="18.181818181818183" height="18.181818181818183" style="fill:#ffffff;shape-rendering:crispEdges;"/>
  <rect x="363.6363636363637" y="436.36363636363643" width="18.181818181818183" height="18.181818181818183" style="fill:#ffffff;shape-rendering:crispEdges;"/>
  <rect x="381.81818181818187" y="436.36363636363643" width="18.181818181818183" height="18.181818181818183" style="fill:#ffffff;shape-rendering:crispEdges;"/>
  <rect x="400.00000000000006" y="436.36363636363643" width="18.181818181818183" height="18.181818181818183" style="fill:#ffffff;shape-rendering:crispEdges;"/>
  <rect x="418.18181818181824" y="436.36363636363643" width="18.181818181818183" height="18.181818181818183" style="fill:#ffffff;shape-rendering:crispEdges;"/>
  <rect x="436.36363636363643" y="436.36363636363643" width="18.181818181818183" height="18.181818181818183" style="fill:#ffffff;shape-rendering:crispEdges;"/>
  <rect x="472.7272727272728" y="436.36363636363643" width="18.181818181818183" height="18.181818181818183" style="fill:#ffffff;shape-rendering:crispEdges;"/>
  <rect x="490.909090909091" y="436.36363636363643" width="18.181818181818183" height="18.181818181818183" style="fill:#ffffff;shape-rendering:crispEdges;"/>
  <rect x="72.72727272727273" y="454.5454545454546" width="18.181818181818183" height="18.181818181818183" style="fill:#ffffff;shape-rendering:crispEdges;"/>
  <rect x="109.0909090909091" y="454.5454545454546" width="18.181818181818183" height="18.181818181818183" style="fill:#ffffff;shape-rendering:crispEdges;"/>
  <rect x="127.27272727272728" y="454.5454545454546" width="18.181818181818183" height="18.181818181818183" style="fill:#ffffff;shape-rendering:crispEdges;"/>
  <rect x="145.45454545454547" y="454.5454545454546" width="18.181818181818183" height="18.181818181818183" style="fill:#ffffff;shape-rendering:crispEdges;"/>
  <rect x="181.8181818181818" y="454.5454545454546" width="18.181818181818183" height="18.181818181818183" style="fill:#ffffff;shape-rendering:crispEdges;"/>
  <rect x="236.36363636363637" y="454.5454545454546" width="18.181818181818183" height="18.181818181818183" style="fill:#ffffff;shape-rendering:crispEdges;"/>
  <rect x="254.54545454545456" y="454.5454545454546" width="18.181818181818183" height="18.181818181818183" style="fill:#ffffff;shape-rendering:crispEdges;"/>
  <rect x="272.72727272727275" y="454.5454545454546" width="18.181818181818183" height="18.181818181818183" style="fill:#ffffff;shape-rendering:crispEdges;"/>
  <rect x="327.2727272727273" y="454.5454545454546" width="18.181818181818183" height="18.181818181818183" style="fill:#ffffff;shape-rendering:crispEdges;"/>
  <rect x="400.00000000000006" y="454.5454545454546" width="18.181818181818183" height="18.181818181818183" style="fill:#ffffff;shape-rendering:crispEdges;"/>
  <rect x="436.36363636363643" y="454.5454545454546" width="18.181818181818183" height="18.181818181818183" style="fill:#ffffff;shape-rendering:crispEdges;"/>
  <rect x="454.5454545454546" y="454.5454545454546" width="18.181818181818183" height="18.181818181818183" style="fill:#ffffff;shape-rendering:crispEdges;"/>
  <rect x="509.0909090909091" y="454.5454545454546" width="18.181818181818183" height="18.181818181818183" style="fill:#ffffff;shape-rendering:crispEdges;"/>
  <rect x="72.72727272727273" y="472.7272727272728" width="18.181818181818183" height="18.181818181818183" style="fill:#ffffff;shape-rendering:crispEdges;"/>
  <rect x="109.0909090909091" y="472.7272727272728" width="18.181818181818183" height="18.181818181818183" style="fill:#ffffff;shape-rendering:crispEdges;"/>
  <rect x="127.27272727272728" y="472.7272727272728" width="18.181818181818183" height="18.181818181818183" style="fill:#ffffff;shape-rendering:crispEdges;"/>
  <rect x="145.45454545454547" y="472.7272727272728" width="18.181818181818183" height="18.181818181818183" style="fill:#ffffff;shape-rendering:crispEdges;"/>
  <rect x="181.8181818181818" y="472.7272727272728" width="18.181818181818183" height="18.181818181818183" style="fill:#ffffff;shape-rendering:crispEdges;"/>
  <rect x="236.36363636363637" y="472.7272727272728" width="18.181818181818183" height="18.181818181818183" style="fill:#ffffff;shape-rendering:crispEdges;"/>
  <rect x="272.72727272727275" y="472.7272727272728" width="18.181818181818183" height="18.181818181818183" style="fill:#ffffff;shape-rendering:crispEdges;"/>
  <rect x="327.2727272727273" y="472.7272727272728" width="18.181818181818183" height="18.181818181818183" style="fill:#ffffff;shape-rendering:crispEdges;"/>
  <rect x="345.4545454545455" y="472.7272727272728" width="18.181818181818183" height="18.181818181818183" style="fill:#ffffff;shape-rendering:crispEdges;"/>
  <rect x="363.6363636363637" y="472.7272727272728" width="18.181818181818183" height="18.181818181818183" style="fill:#ffffff;shape-rendering:crispEdges;"/>
  <rect x="472.7272727272728" y="472.7272727272728" width="18.181818181818183" height="18.181818181818183" style="fill:#ffffff;shape-rendering:crispEdges;"/>
  <rect x="490.909090909091" y="472.7272727272728" width="18.181818181818183" height="18.181818181818183" style="fill:#ffffff;shape-rendering:crispEdges;"/>
  <rect x="72.72727272727273" y="490.909090909091" width="18.181818181818183" height="18.181818181818183" style="fill:#ffffff;shape-rendering:crispEdges;"/>
  <rect x="181.8181818181818" y="490.909090909091" width="18.181818181818183" height="18.181818181818183" style="fill:#ffffff;shape-rendering:crispEdges;"/>
  <rect x="236.36363636363637" y="490.909090909091" width="18.181818181818183" height="18.181818181818183" style="fill:#ffffff;shape-rendering:crispEdges;"/>
  <rect x="272.72727272727275" y="490.909090909091" width="18.181818181818183" height="18.181818181818183" style="fill:#ffffff;shape-rendering:crispEdges;"/>
  <rect x="309.0909090909091" y="490.909090909091" width="18.181818181818183" height="18.181818181818183" style="fill:#ffffff;shape-rendering:crispEdges;"/>
  <rect x="327.2727272727273" y="490.909090909091" width="18.181818181818183" height="18.181818181818183" style="fill:#ffffff;shape-rendering:crispEdges;"/>
  <rect x="363.6363636363637" y="490.909090909091" width="18.181818181818183" height="18.181818181818183" style="fill:#ffffff;shape-rendering:crispEdges;"/>
  <rect x="381.81818181818187" y="490.909090909091" width="18.181818181818183" height="18.181818181818183" style="fill:#ffffff;shape-rendering:crispEdges;"/>
  <rect x="418.18181818181824" y="490.909090909091" width="18.181818181818183" height="18.181818181818183" style="fill:#ffffff;shape-rendering:crispEdges;"/>
  <rect x="454.5454545454546" y="490.909090909091" width="18.181818181818183" height="18.181818181818183" style="fill:#ffffff;shape-rendering:crispEdges;"/>
  <rect x="472.7272727272728" y="490.909090909091" width="18.181818181818183" height="18.181818181818183" style="fill:#ffffff;shape-rendering:crispEdges;"/>
  <rect x="490.909090909091" y="490.909090909091" width="18.181818181818183" height="18.181818181818183" style="fill:#ffffff;shape-rendering:crispEdges;"/>
  <rect x="72.72727272727273" y="509.0909090909091" width="18.181818181818183" height="18.181818181818183" style="fill:#ffffff;shape-rendering:crispEdges;"/>
  <rect x="90.90909090909092" y="509.0909090909091" width="18.181818181818183" height="18.181818181818183" style="fill:#ffffff;shape-rendering:crispEdges;"/>
  <rect x="109.0909090909091" y="509.0909090909091" width="18.181818181818183" height="18.181818181818183" style="fill:#ffffff;shape-rendering:crispEdges;"/>
  <rect x="127.27272727272728" y="509.0909090909091" width="18.181818181818183" height="18.181818181818183" style="fill:#ffffff;shape-rendering:crispEdges;"/>
  <rect x="145.45454545454547" y="509.0909090909091" width="18.181818181818183" height="18.181818181818183" style="fill:#ffffff;shape-rendering:crispEdges;"/>
  <rect x="163.63636363636365" y="509.0909090909091" width="18.181818181818183" height="18.181818181818183" style="fill:#ffffff;shape-rendering:crispEdges;"/>
  <rect x="181.8181818181818" y="509.0909090909091" width="18.181818181818183" height="18.181818181818183" style="fill:#ffffff;shape-rendering:crispEdges;"/>
  <rect x="218.1818181818182" y="509.0909090909091" width="18.181818181818183" height="18.181818181818183" style="fill:#ffffff;shape-rendering:crispEdges;"/>
  <rect x="254.54545454545456" y="509.0909090909091" width="18.181818181818183" height="18.181818181818183" style="fill:#ffffff;shape-rendering:crispEdges;"/>
  <rect x="272.72727272727275" y="509.0909090909091" width="18.181818181818183" height="18.181818181818183" style="fill:#ffffff;shape-rendering:crispEdges;"/>
  <rect x="290.90909090909093" y="509.0909090909091" width="18.181818181818183" height="18.181818181818183" style="fill:#ffffff;shape-rendering:crispEdges;"/>
  <rect x="327.2727272727273" y="509.0909090909091" width="18.181818181818183" height="18.181818181818183" style="fill:#ffffff;shape-rendering:crispEdges;"/>
  <rect x="345.4545454545455" y="509.0909090909091" width="18.181818181818183" height="18.181818181818183" style="fill:#ffffff;shape-rendering:crispEdges;"/>
  <rect x="400.00000000000006" y="509.0909090909091" width="18.181818181818183" height="18.181818181818183" style="fill:#ffffff;shape-rendering:crispEdges;"/>
  <rect x="436.36363636363643" y="509.0909090909091" width="18.181818181818183" height="18.181818181818183" style="fill:#ffffff;shape-rendering:crispEdges;"/>
  <rect x="454.5454545454546" y="509.0909090909091" width="18.181818181818183" height="18.181818181818183" style="fill:#ffffff;shape-rendering:crispEdges;"/>
  <rect x="472.7272727272728" y="509.0909090909091" width="18.181818181818183" height="18.181818181818183" style="fill:#ffffff;shape-rendering:crispEdges;"/>
  <rect x="490.909090909091" y="509.0909090909091" width="18.181818181818183" height="18.181818181818183" style="fill:#ffffff;shape-rendering:crispEdges;"/>
  <rect x="509.0909090909091" y="509.0909090909091" width="18.181818181818183" height="18.181818181818183" style="fill:#ffffff;shape-rendering:crispEdges;"/>
</svg>